HIERARCHY
ROOT Hips
{
  OFFSET 366.968 89.8584 201.872
  CHANNELS 6 Xposition Yposition Zposition Zrotation Xrotation Yrotation
  JOINT RightUpLeg
  {
    OFFSET -9.27335 -1.56761 0.0107022
    CHANNELS 6 Xposition Yposition Zposition Zrotation Xrotation Yrotation
    JOINT RightLeg
    {
      OFFSET -0.00417653 -41.8888 0.0332927
      CHANNELS 6 Xposition Yposition Zposition Zrotation Xrotation Yrotation
      JOINT RightFoot
      {
        OFFSET 0.53573 -42.1246 0.242416
        CHANNELS 6 Xposition Yposition Zposition Zrotation Xrotation Yrotation
        End Site
        {
          OFFSET 0 -7.69 17.5
        }
      }
    }
  }
  JOINT LeftUpLeg
  {
    OFFSET 9.28656 -1.61166 -0.0155815
    CHANNELS 6 Xposition Yposition Zposition Zrotation Xrotation Yrotation
    JOINT LeftLeg
    {
      OFFSET 0.0376823 -41.8816 -0.00845193
      CHANNELS 6 Xposition Yposition Zposition Zrotation Xrotation Yrotation
      JOINT LeftFoot
      {
        OFFSET -0.126491 -41.5001 -0.19715
        CHANNELS 6 Xposition Yposition Zposition Zrotation Xrotation Yrotation
        End Site
        {
          OFFSET 0 -7.69 17.5
        }
      }
    }
  }
  JOINT Spine
  {
    OFFSET 0.0229025 14.3001 0.0223296
    CHANNELS 6 Xposition Yposition Zposition Zrotation Xrotation Yrotation
    JOINT Spine1
    {
      OFFSET 0.013513 9.71978 0.0100827
      CHANNELS 6 Xposition Yposition Zposition Zrotation Xrotation Yrotation
      JOINT Spine2
      {
        OFFSET 0.0255674 10.1141 0.00109509
        CHANNELS 6 Xposition Yposition Zposition Zrotation Xrotation Yrotation
        JOINT Spine3
        {
          OFFSET 0.0238651 9.71689 -0.00248792
          CHANNELS 6 Xposition Yposition Zposition Zrotation Xrotation Yrotation
          JOINT Neck
          {
            OFFSET 0.0180927 10.3846 0.0154169
            CHANNELS 6 Xposition Yposition Zposition Zrotation Xrotation Yrotation
            JOINT Head
            {
              OFFSET 0.0126586 9.47051 0.0094727
              CHANNELS 6 Xposition Yposition Zposition Zrotation Xrotation Yrotation
              End Site
              {
                OFFSET 0 15.95 0
              }
            }
          }
          JOINT RightShoulder
          {
            OFFSET -3.18283 6.92816 0.00496977
            CHANNELS 6 Xposition Yposition Zposition Zrotation Xrotation Yrotation
            JOINT RightArm
            {
              OFFSET -12.792 -0.0136593 0.00705056
              CHANNELS 6 Xposition Yposition Zposition Zrotation Xrotation Yrotation
              JOINT RightForeArm
              {
                OFFSET -26.5064 -0.0177507 0.0258232
                CHANNELS 6 Xposition Yposition Zposition Zrotation Xrotation Yrotation
                JOINT RightHand
                {
                  OFFSET -25.9933 -0.0201129 0.02194
                  CHANNELS 6 Xposition Yposition Zposition Zrotation Xrotation Yrotation
                  JOINT RightHandThumb1
                  {
                    OFFSET -2.48905 0.190105 3.12053
                    CHANNELS 6 Xposition Yposition Zposition Zrotation Xrotation Yrotation
                    JOINT RightHandThumb2
                    {
                      OFFSET -3.68274 0 0
                      CHANNELS 6 Xposition Yposition Zposition Zrotation Xrotation Yrotation
                      JOINT RightHandThumb3
                      {
                        OFFSET -2.55832 0 0
                        CHANNELS 6 Xposition Yposition Zposition Zrotation Xrotation Yrotation
                        End Site
                        {
                          OFFSET -2.194 0 0
                        }
                      }
                    }
                  }
                  JOINT RightInHandIndex
                  {
                    OFFSET -3.22368 0.508421 1.97842
                    CHANNELS 6 Xposition Yposition Zposition Zrotation Xrotation Yrotation
                    JOINT RightHandIndex1
                    {
                      OFFSET -5.21684 -0.091368 0.999158
                      CHANNELS 6 Xposition Yposition Zposition Zrotation Xrotation Yrotation
                      JOINT RightHandIndex2
                      {
                        OFFSET -3.61937 0 0
                        CHANNELS 6 Xposition Yposition Zposition Zrotation Xrotation Yrotation
                        JOINT RightHandIndex3
                        {
                          OFFSET -2.0521 0 0
                          CHANNELS 6 Xposition Yposition Zposition Zrotation Xrotation Yrotation
                          End Site
                          {
                            OFFSET -1.805 0 0
                          }
                        }
                      }
                    }
                  }
                  JOINT RightInHandMiddle
                  {
                    OFFSET -3.38211 0.517263 0.756737
                    CHANNELS 6 Xposition Yposition Zposition Zrotation Xrotation Yrotation
                    JOINT RightHandMiddle1
                    {
                      OFFSET -5.17411 -0.084 0.313895
                      CHANNELS 6 Xposition Yposition Zposition Zrotation Xrotation Yrotation
                      JOINT RightHandMiddle2
                      {
                        OFFSET -3.94947 0 0
                        CHANNELS 6 Xposition Yposition Zposition Zrotation Xrotation Yrotation
                        JOINT RightHandMiddle3
                        {
                          OFFSET -2.47579 0 0
                          CHANNELS 6 Xposition Yposition Zposition Zrotation Xrotation Yrotation
                          End Site
                          {
                            OFFSET -1.975 0 0
                          }
                        }
                      }
                    }
                  }
                  JOINT RightInHandRing
                  {
                    OFFSET -3.36516 0.537895 -0.128947
                    CHANNELS 6 Xposition Yposition Zposition Zrotation Xrotation Yrotation
                    JOINT RightHandRing1
                    {
                      OFFSET -4.63474 -0.022105 -0.478947
                      CHANNELS 6 Xposition Yposition Zposition Zrotation Xrotation Yrotation
                      JOINT RightHandRing2
                      {
                        OFFSET -3.44238 0 0
                        CHANNELS 6 Xposition Yposition Zposition Zrotation Xrotation Yrotation
                        JOINT RightHandRing3
                        {
                          OFFSET -2.3881 0 0
                          CHANNELS 6 Xposition Yposition Zposition Zrotation Xrotation Yrotation
                          End Site
                          {
                            OFFSET -1.857 0 0
                          }
                        }
                      }
                    }
                  }
                  JOINT RightInHandPinky
                  {
                    OFFSET -3.16105 0.469368 -1.20179
                    CHANNELS 6 Xposition Yposition Zposition Zrotation Xrotation Yrotation
                    JOINT RightHandPinky1
                    {
                      OFFSET -4.14105 -0.022105 -1.09053
                      CHANNELS 6 Xposition Yposition Zposition Zrotation Xrotation Yrotation
                      JOINT RightHandPinky2
                      {
                        OFFSET -2.75653 0 0
                        CHANNELS 6 Xposition Yposition Zposition Zrotation Xrotation Yrotation
                        JOINT RightHandPinky3
                        {
                          OFFSET -1.74189 0 0
                          CHANNELS 6 Xposition Yposition Zposition Zrotation Xrotation Yrotation
                          End Site
                          {
                            OFFSET -1.645 0 0
                          }
                        }
                      }
                    }
                  }
                }
              }
            }
          }
          JOINT LeftShoulder
          {
            OFFSET 3.2259 6.91998 -0.00872349
            CHANNELS 6 Xposition Yposition Zposition Zrotation Xrotation Yrotation
            JOINT LeftArm
            {
              OFFSET 12.8079 -0.0140762 -0.0286605
              CHANNELS 6 Xposition Yposition Zposition Zrotation Xrotation Yrotation
              JOINT LeftForeArm
              {
                OFFSET 26.5071 -0.0235899 -0.00806802
                CHANNELS 6 Xposition Yposition Zposition Zrotation Xrotation Yrotation
                JOINT LeftHand
                {
                  OFFSET 25.9974 -0.0303207 -0.0235047
                  CHANNELS 6 Xposition Yposition Zposition Zrotation Xrotation Yrotation
                  JOINT LeftHandThumb1
                  {
                    OFFSET 2.48905 0.190105 3.12053
                    CHANNELS 6 Xposition Yposition Zposition Zrotation Xrotation Yrotation
                    JOINT LeftHandThumb2
                    {
                      OFFSET 3.68274 0 0
                      CHANNELS 6 Xposition Yposition Zposition Zrotation Xrotation Yrotation
                      JOINT LeftHandThumb3
                      {
                        OFFSET 2.55832 0 0
                        CHANNELS 6 Xposition Yposition Zposition Zrotation Xrotation Yrotation
                        End Site
                        {
                          OFFSET 2.194 0 0
                        }
                      }
                    }
                  }
                  JOINT LeftInHandIndex
                  {
                    OFFSET 3.22368 0.508421 1.97842
                    CHANNELS 6 Xposition Yposition Zposition Zrotation Xrotation Yrotation
                    JOINT LeftHandIndex1
                    {
                      OFFSET 5.21684 -0.091368 0.999158
                      CHANNELS 6 Xposition Yposition Zposition Zrotation Xrotation Yrotation
                      JOINT LeftHandIndex2
                      {
                        OFFSET 3.61937 0 0
                        CHANNELS 6 Xposition Yposition Zposition Zrotation Xrotation Yrotation
                        JOINT LeftHandIndex3
                        {
                          OFFSET 2.0521 0 0
                          CHANNELS 6 Xposition Yposition Zposition Zrotation Xrotation Yrotation
                          End Site
                          {
                            OFFSET 1.805 0 0
                          }
                        }
                      }
                    }
                  }
                  JOINT LeftInHandMiddle
                  {
                    OFFSET 3.38211 0.517263 0.756737
                    CHANNELS 6 Xposition Yposition Zposition Zrotation Xrotation Yrotation
                    JOINT LeftHandMiddle1
                    {
                      OFFSET 5.17411 -0.084 0.313895
                      CHANNELS 6 Xposition Yposition Zposition Zrotation Xrotation Yrotation
                      JOINT LeftHandMiddle2
                      {
                        OFFSET 3.94947 0 0
                        CHANNELS 6 Xposition Yposition Zposition Zrotation Xrotation Yrotation
                        JOINT LeftHandMiddle3
                        {
                          OFFSET 2.47579 0 0
                          CHANNELS 6 Xposition Yposition Zposition Zrotation Xrotation Yrotation
                          End Site
                          {
                            OFFSET 1.975 0 0
                          }
                        }
                      }
                    }
                  }
                  JOINT LeftInHandRing
                  {
                    OFFSET 3.36516 0.537895 -0.128947
                    CHANNELS 6 Xposition Yposition Zposition Zrotation Xrotation Yrotation
                    JOINT LeftHandRing1
                    {
                      OFFSET 4.63474 -0.022105 -0.478947
                      CHANNELS 6 Xposition Yposition Zposition Zrotation Xrotation Yrotation
                      JOINT LeftHandRing2
                      {
                        OFFSET 3.44238 0 0
                        CHANNELS 6 Xposition Yposition Zposition Zrotation Xrotation Yrotation
                        JOINT LeftHandRing3
                        {
                          OFFSET 2.3881 0 0
                          CHANNELS 6 Xposition Yposition Zposition Zrotation Xrotation Yrotation
                          End Site
                          {
                            OFFSET 1.857 0 0
                          }
                        }
                      }
                    }
                  }
                  JOINT LeftInHandPinky
                  {
                    OFFSET 3.16105 0.469368 -1.20179
                    CHANNELS 6 Xposition Yposition Zposition Zrotation Xrotation Yrotation
                    JOINT LeftHandPinky1
                    {
                      OFFSET 4.14105 -0.022105 -1.09053
                      CHANNELS 6 Xposition Yposition Zposition Zrotation Xrotation Yrotation
                      JOINT LeftHandPinky2
                      {
                        OFFSET 2.75653 0 0
                        CHANNELS 6 Xposition Yposition Zposition Zrotation Xrotation Yrotation
                        JOINT LeftHandPinky3
                        {
                          OFFSET 1.74189 0 0
                          CHANNELS 6 Xposition Yposition Zposition Zrotation Xrotation Yrotation
                          End Site
                          {
                            OFFSET 1.645 0 0
                          }
                        }
                      }
                    }
                  }
                }
              }
            }
          }
        }
      }
    }
  }
}
MOTION
Frames:	3
Frame Time:	0.00833333
362.065 87.4885 199.926 24.3883 2.45748 -130.419 -9.35324 -1.6382 -0.0339391 36.96 -35.5114 31.3792 -0.203324 -41.8671 0.0727467 -6.94331 14.7427 1.26503 1.43095 -41.7676 0.0519333 5.94432 9.18975 51.9391 9.21233 -1.56018 0.154158 36.1607 -15.9096 18.888 -0.0229618 -41.9426 0.127442 -25.0706 41.6535 29.784 -0.28288 -42.0052 -0.215114 -4.71409 -30.6102 4.50998 -0.00120821 14.3089 0.0395635 -7.0656 -3.90829 -15.015 0.00823306 9.72061 0.0309091 -1.67552 -1.34113 -3.6454 -0.016836 10.1261 -0.00637627 -2.79323 -2.31296 -5.87286 0.000735217 9.72276 0.00941089 -0.50152 -0.246015 2.70155 0.0106465 10.3846 0.139395 -0.443193 -4.45701 37.0979 -0.116427 9.4554 0.0900054 -8.31648 6.90713 27.8906 -3.19983 6.90011 0.0143926 3.15279 1.54168 3.69754 -12.746 -0.135757 0.133314 17.9408 -63.1826 -14.2645 -26.4268 -0.246458 -0.0812152 19.4633 -10.9776 123.897 -25.9976 -0.0145839 0.00877409 1.67012 -25.5066 7.26565 -2.48905 0.190105 3.12053 28.184 10.7294 19.1592 -3.68274 0 0 2.17563e-15 3.18055e-15 -10 -2.55832 0 1.42109e-14 5.60818e-16 3.18055e-15 -10 -3.22368 0.508421 1.97842 -3.18055e-15 1.59028e-15 -0 -5.21684 -0.091368 0.999158 19.9818 0.871897 2.3964 -3.61937 0 0 24 -6.36111e-15 -1.39149e-15 -2.0521 0 -1.42109e-14 20 3.18055e-15 1.59028e-15 -3.38211 0.517263 0.756737 -3.18055e-15 1.59028e-15 -0 -5.17411 -0.084 0.313895 20 -3.18055e-15 -6.36111e-15 -3.94947 5.68434e-14 -1.42109e-14 24 0 -5.96354e-16 -2.47579 0 0 20 3.18055e-15 -1.59028e-15 -3.36516 0.537895 -0.128947 -3.18055e-15 1.59028e-15 -0 -4.63474 -0.022105 -0.478947 19.9748 -1.02565 -2.81938 -3.44238 0 2.84217e-14 24 3.18055e-15 7.95139e-16 -2.3881 0 2.84217e-14 20 -9.54166e-15 3.18055e-15 -3.16105 0.469368 -1.20179 -3.18055e-15 1.59028e-15 -0 -4.14105 -0.022105 -1.09053 19.7815 -3.00948 -8.30515 -2.75653 5.68434e-14 -1.42109e-14 24 1.59028e-15 4.77083e-15 -1.74189 0 1.42109e-14 20 0 -3.18055e-15 3.19374 6.93374 -0.018565 6.00855 -22.53 -50.5806 12.7128 0.0781636 -0.0395668 -14.1471 23.9354 -114.009 26.4974 0.0156123 0.122248 32.9061 -13.881 -37.3324 25.968 -0.017851 -0.0433572 -33.2697 -8.74967 -18.2588 2.48905 0.190105 3.12053 -28.184 10.7294 -19.1592 3.68274 0 -2.84217e-14 -4.03702e-15 0 10 2.55832 0 0 8.07405e-16 0 10 3.22368 0.508421 1.97842 1.98785e-15 0 -0 5.21684 -0.091368 0.999158 -19.9818 0.871897 -2.3964 3.61937 0 -1.42109e-14 -24 3.18055e-15 -3.97569e-15 2.0521 0 0 -20 -3.18055e-15 -1.09332e-15 3.38211 0.517263 0.756737 1.98785e-15 0 -0 5.17411 -0.084 0.313895 -20 -3.18055e-15 1.59028e-15 3.94947 2.84217e-14 2.84217e-14 -24 0 -0 2.47579 0 -2.84217e-14 -20 0 1.78906e-15 3.36516 0.537895 -0.128947 1.98785e-15 0 -0 4.63474 -0.022105 -0.478947 -19.9748 -1.02565 2.81938 3.44238 0 2.84217e-14 -24 3.18055e-15 3.97569e-16 2.3881 -5.68434e-14 1.42109e-14 -20 1.59028e-15 -1.98785e-15 3.16105 0.469368 -1.20179 1.98785e-15 0 -0 4.14105 -0.022105 -1.09053 -19.7815 -3.00948 8.30515 2.75653 0 0 -24 -3.18055e-15 -3.97569e-16 1.74189 5.68434e-14 0 -20 7.95139e-16 7.95139e-16 
362.143 87.5344 199.984 24.5206 2.62372 -130.21 -9.35406 -1.64284 -0.0392084 37.0361 -35.6642 31.3615 -0.20283 -41.8666 0.0766029 -6.91104 14.7566 1.31241 1.37707 -41.8362 0.057687 6.53801 9.07852 51.4559 9.21235 -1.57682 0.0811029 36.3962 -16.375 19.0885 -0.00498566 -41.9429 0.0494242 -24.9713 42.0797 29.5968 -0.259634 -41.9899 -0.171576 -4.56859 -30.5257 4.5808 -0.000881101 14.3087 0.0329812 -6.97607 -3.89831 -14.9842 0.00924029 9.72058 0.0294259 -1.65348 -1.33206 -3.63954 -0.0167252 10.1258 -0.00232346 -2.75702 -2.29597 -5.86588 0.00113826 9.72289 0.00974375 -0.500397 -0.2427 2.70023 0.0090043 10.3848 0.134497 -0.462271 -4.3994 36.9473 -0.11402 9.45557 0.0850565 -8.30394 6.8808 27.9676 -3.19959 6.90071 0.0149254 3.24539 1.5882 3.61091 -12.7437 -0.137575 0.133108 18.3764 -63.1606 -14.0653 -26.4294 -0.243864 -0.0827858 19.6892 -10.8612 123.912 -25.9975 -0.0669212 0.0566257 1.37325 -26.5168 7.15126 -2.48905 0.190105 3.12053 28.184 10.7294 19.1592 -3.68274 0 1.42109e-14 -3.22962e-15 0 -10 -2.55832 -5.68434e-14 0 5.60818e-16 3.18055e-15 -10 -3.22368 0.508421 1.97842 -1.59028e-15 6.36111e-15 4.77083e-15 -5.21684 -0.091368 0.999158 19.9818 0.871897 2.3964 -3.61937 -5.68434e-14 1.42109e-14 24 -6.36111e-15 -1.98785e-16 -2.0521 0 0 20 -6.36111e-15 -1.59028e-15 -3.38211 0.517263 0.756737 -1.59028e-15 6.36111e-15 4.77083e-15 -5.17411 -0.084 0.313895 20 -6.36111e-15 -0 -3.94947 5.68434e-14 -1.42109e-14 24 0 1.09332e-15 -2.47579 0 0 20 0 7.95139e-16 -3.36516 0.537895 -0.128947 -1.59028e-15 6.36111e-15 4.77083e-15 -4.63474 -0.022105 -0.478947 19.9748 -1.02565 -2.81938 -3.44238 0 -4.26326e-14 24 0 -0 -2.3881 0 0 20 -1.59028e-15 1.59028e-15 -3.16105 0.469368 -1.20179 -1.59028e-15 6.36111e-15 4.77083e-15 -4.14105 -0.022105 -1.09053 19.7815 -3.00948 -8.30515 -2.75653 0 0 24 6.36111e-15 -3.18055e-15 -1.74189 -5.68434e-14 -2.84217e-14 20 -1.59028e-15 -3.18055e-15 3.19593 6.93473 -0.0208973 6.0115 -22.4178 -50.6505 12.7165 0.0851506 -0.0438215 -14.0615 24.009 -113.992 26.4966 0.0200467 0.122164 32.9198 -13.7353 -37.1252 25.9683 -0.0149724 -0.0243946 -33.3013 -8.82514 -18.0127 2.48905 0.190105 3.12053 -28.184 10.7294 -19.1592 3.68274 0 2.84217e-14 -3.79044e-15 3.18055e-15 10 2.55832 0 -5.68434e-14 -2.82592e-15 0 10 3.22368 0.508421 1.97842 3.37934e-15 -7.95139e-16 -0 5.21684 -0.091368 0.999158 -19.9818 0.871897 -2.3964 3.61937 2.84217e-14 0 -24 1.59028e-15 1.59028e-15 2.0521 0 1.42109e-14 -20 0 -4.67144e-15 3.38211 0.517263 0.756737 3.37934e-15 -7.95139e-16 -0 5.17411 -0.084 0.313895 -20 -1.59028e-15 1.59028e-15 3.94947 0 0 -24 1.59028e-15 -7.95139e-16 2.47579 -5.68434e-14 1.42109e-14 -20 -4.77083e-15 1.78906e-15 3.36516 0.537895 -0.128947 3.37934e-15 -7.95139e-16 -0 4.63474 -0.022105 -0.478947 -19.9748 -1.02565 2.81938 3.44238 2.84217e-14 -1.42109e-14 -24 -3.18055e-15 -1.98785e-16 2.3881 0 4.26326e-14 -20 0 -7.95139e-16 3.16105 0.469368 -1.20179 3.37934e-15 -7.95139e-16 -0 4.14105 -0.022105 -1.09053 -19.7815 -3.00948 8.30515 2.75653 -2.84217e-14 0 -24 0 -3.97569e-16 1.74189 5.68434e-14 -2.84217e-14 -20 0 -7.95139e-16 
362.223 87.5579 200.044 24.634 2.79462 -129.975 -9.3549 -1.64412 -0.0394586 37.0852 -35.8273 31.3397 -0.214689 -41.8659 0.0799667 -6.86759 14.7864 1.36593 1.38353 -41.8704 0.0646521 6.84931 9.02224 51.0689 9.21236 -1.57807 0.0823689 36.6088 -16.6004 19.0235 -0.00559307 -41.9433 0.049113 -25.0335 42.1759 29.557 -0.253227 -41.945 -0.148813 -4.42431 -30.4183 4.64059 -0.000536791 14.3085 0.0276887 -6.87989 -3.86043 -14.9617 0.0102487 9.72055 0.0279217 -1.63049 -1.31631 -3.63891 -0.0166131 10.1256 0.00246514 -2.71906 -2.26837 -5.86502 0.0015173 9.72302 0.010077 -0.499189 -0.239736 2.69903 0.00706066 10.3849 0.128623 -0.474971 -4.35869 36.9116 -0.111598 9.45572 0.081359 -8.28443 6.85589 27.989 -3.19951 6.90141 0.0147041 3.34438 1.61967 3.54249 -12.7488 -0.12657 0.125179 18.9907 -63.114 -13.7259 -26.4319 -0.228536 -0.0746064 19.878 -10.7667 123.965 -25.9975 -0.0740403 0.0666929 1.38743 -26.6139 7.27653 -2.48905 0.190105 3.12053 28.184 10.7294 19.1592 -3.68274 0 -2.84217e-14 -1.05639e-14 -9.54166e-15 -10 -2.55832 5.68434e-14 1.42109e-14 -4.19414e-15 -3.18055e-15 -10 -3.22368 0.508421 1.97842 5.1684e-15 -1.59028e-15 -3.18055e-15 -5.21684 -0.091368 0.999158 19.9818 0.871897 2.3964 -3.61937 0 0 24 3.18055e-15 1.98785e-16 -2.0521 -5.68434e-14 1.42109e-14 20 0 -1.59028e-15 -3.38211 0.517263 0.756737 5.1684e-15 -1.59028e-15 -3.18055e-15 -5.17411 -0.084 0.313895 20 0 7.95139e-16 -3.94947 1.13687e-13 1.42109e-14 24 -3.18055e-15 8.44835e-16 -2.47579 0 0 20 0 -7.95139e-16 -3.36516 0.537895 -0.128947 5.1684e-15 -1.59028e-15 -3.18055e-15 -4.63474 -0.022105 -0.478947 19.9748 -1.02565 -2.81938 -3.44238 0 -1.42109e-14 24 0 1.19271e-15 -2.3881 -5.68434e-14 1.42109e-14 20 0 -0 -3.16105 0.469368 -1.20179 5.1684e-15 -1.59028e-15 -3.18055e-15 -4.14105 -0.022105 -1.09053 19.7815 -3.00948 -8.30515 -2.75653 0 0 24 1.59028e-15 7.95139e-16 -1.74189 -5.68434e-14 0 20 0 -1.59028e-15 3.19784 6.93549 -0.0229165 6.06272 -22.3464 -50.5731 12.7097 0.0895093 -0.0499039 -13.9908 24.0877 -114.035 26.4957 0.0206936 0.135756 32.9133 -13.5965 -36.9369 25.9681 -0.0114148 -0.0220636 -33.3154 -8.86858 -17.8877 2.48905 0.190105 3.12053 -28.184 10.7294 -19.1592 3.68274 -5.68434e-14 0 -8.07405e-16 0 10 2.55832 0 0 1.14346e-15 9.54166e-15 10 3.22368 0.508421 1.97842 -9.93923e-16 0 -0 5.21684 -0.091368 0.999158 -19.9818 0.871897 -2.3964 3.61937 0 2.84217e-14 -24 0 -0 2.0521 0 0 -20 0 9.93923e-17 3.38211 0.517263 0.756737 -9.93923e-16 0 -0 5.17411 -0.084 0.313895 -20 3.18055e-15 -0 3.94947 -2.84217e-14 0 -24 -3.18055e-15 -7.95139e-16 2.47579 5.68434e-14 0 -20 3.18055e-15 -6.95746e-16 3.36516 0.537895 -0.128947 -9.93923e-16 0 -0 4.63474 -0.022105 -0.478947 -19.9748 -1.02565 2.81938 3.44238 2.84217e-14 -1.42109e-14 -24 1.59028e-15 -3.97569e-16 2.3881 5.68434e-14 -1.42109e-14 -20 -3.18055e-15 -7.95139e-16 3.16105 0.469368 -1.20179 -9.93923e-16 0 -0 4.14105 -0.022105 -1.09053 -19.7815 -3.00948 8.30515 2.75653 -2.84217e-14 0 -24 1.59028e-15 -0 1.74189 5.68434e-14 -2.84217e-14 -20 0 7.95139e-16 
